<svg xmlns="http://www.w3.org/2000/svg" width="139.97" height="31.57" viewBox="0 0 139.97 31.57">
  <g id="Gagarin_Logotype" data-name="Gagarin Logotype" transform="translate(-271.713 -814.423)">
    <g id="Group_1" data-name="Group 1" transform="translate(332.427 814.832)">
      <path id="Path_1" data-name="Path 1" d="M316.479,825.853a4.823,4.823,0,0,0,3.024-1,4.477,4.477,0,0,0,1.684-2.6H316.5v-1.29h6.284a5.914,5.914,0,0,1-1.809,4.4,6.581,6.581,0,0,1-8.987,0,5.914,5.914,0,0,1-1.809-4.4,6.221,6.221,0,0,1,6.3-6.284,6.335,6.335,0,0,1,3.446.976,5.961,5.961,0,0,1,2.3,2.641h-1.577a4.617,4.617,0,0,0-1.746-1.709,4.868,4.868,0,0,0-2.425-.619,4.631,4.631,0,0,0-3.455,1.433,5.106,5.106,0,0,0,0,7.018A4.63,4.63,0,0,0,316.479,825.853Z" transform="translate(-310.176 -814.682)"/>
      <path id="Path_2" data-name="Path 2" d="M325.184,814.773l5.335,12.173h-1.577l-1.217-2.81H321.28l-1.217,2.81h-1.558l5.425-12.173Zm-3.367,8.128h5.372l-2.65-6.177h-.054Z" transform="translate(-305.358 -814.629)"/>
      <path id="Path_3" data-name="Path 3" d="M332.762,825.853a4.828,4.828,0,0,0,3.026-1,4.474,4.474,0,0,0,1.683-2.6h-4.691v-1.29h6.284a5.913,5.913,0,0,1-1.807,4.4,6.583,6.583,0,0,1-8.988,0,5.914,5.914,0,0,1-1.809-4.4,6.221,6.221,0,0,1,6.3-6.284,6.335,6.335,0,0,1,3.446.976,5.961,5.961,0,0,1,2.3,2.641h-1.575a4.629,4.629,0,0,0-1.746-1.709,4.874,4.874,0,0,0-2.426-.619,4.633,4.633,0,0,0-3.455,1.433,5.106,5.106,0,0,0,0,7.018A4.632,4.632,0,0,0,332.762,825.853Z" transform="translate(-300.756 -814.682)"/>
      <path id="Path_4" data-name="Path 4" d="M341.467,814.773l5.335,12.173h-1.577l-1.217-2.81h-6.445l-1.217,2.81h-1.558l5.425-12.173ZM338.1,822.9h5.372l-2.65-6.177h-.054Z" transform="translate(-295.938 -814.629)"/>
      <path id="Path_5" data-name="Path 5" d="M350.015,821.916l2.99,5.031h-1.683l-2.794-4.87h-3.563v4.87h-1.432V814.773h5.209a4.149,4.149,0,0,1,2.892.993,3.3,3.3,0,0,1,1.1,2.57A3.618,3.618,0,0,1,352,820.6,3.711,3.711,0,0,1,350.015,821.916Zm-5.05-5.855v4.745h3.689a2.605,2.605,0,0,0,1.853-.68,2.3,2.3,0,0,0,.725-1.755,2.133,2.133,0,0,0-.734-1.637,2.579,2.579,0,0,0-1.809-.672Z" transform="translate(-290.878 -814.629)"/>
      <path id="Path_6" data-name="Path 6" d="M352.61,814.773v12.173h-1.432V814.773Z" transform="translate(-286.456 -814.629)"/>
      <path id="Path_7" data-name="Path 7" d="M364.165,814.773v12.173h-1.4l-7.52-10.061h-.036v10.061h-1.361V814.773H355.3l7.466,9.81h.035v-9.81Z" transform="translate(-284.91 -814.629)"/>
      <path id="Path_8" data-name="Path 8" d="M311.609,833.665v4.871h-1.433V826.361h5.264a4.157,4.157,0,0,1,2.892.993,3.3,3.3,0,0,1,1.1,2.57,3.529,3.529,0,0,1-1.119,2.685,3.986,3.986,0,0,1-2.855,1.056Zm0-6.014v4.743h3.741a2.6,2.6,0,0,0,1.853-.68,2.3,2.3,0,0,0,.725-1.754,2.134,2.134,0,0,0-.734-1.638,2.575,2.575,0,0,0-1.807-.671Z" transform="translate(-310.176 -807.925)"/>
      <path id="Path_9" data-name="Path 9" d="M323.95,833.5l2.99,5.032h-1.683l-2.792-4.871H318.9v4.871h-1.433V826.361h5.211a4.153,4.153,0,0,1,2.89.993,3.305,3.305,0,0,1,1.1,2.57,3.618,3.618,0,0,1-.734,2.265A3.711,3.711,0,0,1,323.95,833.5Zm-5.048-5.853v4.743h3.687a2.6,2.6,0,0,0,1.853-.68,2.3,2.3,0,0,0,.725-1.754,2.134,2.134,0,0,0-.734-1.638,2.575,2.575,0,0,0-1.807-.671Z" transform="translate(-305.957 -807.925)"/>
      <path id="Path_10" data-name="Path 10" d="M330.84,826.27a6.221,6.221,0,0,1,6.3,6.284,5.92,5.92,0,0,1-1.809,4.406,6.587,6.587,0,0,1-8.988,0,5.919,5.919,0,0,1-1.807-4.406,6.218,6.218,0,0,1,6.3-6.284Zm-4.852,6.23a4.832,4.832,0,0,0,1.4,3.509,4.882,4.882,0,0,0,6.911,0,5.106,5.106,0,0,0,0-7.018,4.886,4.886,0,0,0-6.911,0A4.835,4.835,0,0,0,325.988,832.5Z" transform="translate(-301.867 -807.978)"/>
      <path id="Path_11" data-name="Path 11" d="M336.941,837.354a1.86,1.86,0,0,0,1.388-.556,1.95,1.95,0,0,0,.546-1.432v-9.005h1.432v8.952a3.3,3.3,0,0,1-3.365,3.365,3.324,3.324,0,0,1-2.434-.9,3.158,3.158,0,0,1-.914-2.363v-.376h1.433v.466a1.751,1.751,0,0,0,.546,1.315A1.887,1.887,0,0,0,336.941,837.354Z" transform="translate(-296.629 -807.925)"/>
      <path id="Path_12" data-name="Path 12" d="M348.258,837.246v1.29h-8.7V826.361h8.7v1.29h-7.25v4.082h5.425v1.288h-5.425v4.226Z" transform="translate(-293.179 -807.925)"/>
      <path id="Path_13" data-name="Path 13" d="M352.1,837.443a4.749,4.749,0,0,0,2.4-.627,4.853,4.853,0,0,0,1.754-1.719h1.629a5.822,5.822,0,0,1-2.282,2.658,6.427,6.427,0,0,1-3.5.976,6.165,6.165,0,0,1-4.494-1.771,5.92,5.92,0,0,1-1.809-4.406,6.221,6.221,0,0,1,6.3-6.284,6.279,6.279,0,0,1,3.411.975,6.075,6.075,0,0,1,2.317,2.641H356.18a4.584,4.584,0,0,0-1.719-1.719,4.714,4.714,0,0,0-2.363-.608,4.629,4.629,0,0,0-3.455,1.432,5.106,5.106,0,0,0,0,7.018A4.631,4.631,0,0,0,352.1,837.443Z" transform="translate(-289.57 -807.978)"/>
      <path id="Path_14" data-name="Path 14" d="M359.764,827.651v10.885h-1.451V827.651H354v-1.29h10.08v1.29Z" transform="translate(-284.824 -807.925)"/>
    </g>
    <g id="Group_2" data-name="Group 2" transform="translate(271.713 814.423)">
      <circle id="Ellipse_1" data-name="Ellipse 1" cx="4.857" cy="4.857" r="4.857" transform="translate(43.711 9.714)" fill="#ec4115"/>
      <circle id="Ellipse_2" data-name="Ellipse 2" cx="3.643" cy="3.643" r="3.643" transform="translate(33.998 7.285)" fill="#6d67ab"/>
      <circle id="Ellipse_3" data-name="Ellipse 3" cx="2.428" cy="2.428" r="2.428" transform="translate(26.712)" fill="#009b3b"/>
      <circle id="Ellipse_4" data-name="Ellipse 4" cx="4.857" cy="4.857" r="4.857" transform="translate(7.285 2.428)" fill="#ffbe00"/>
      <circle id="Ellipse_5" data-name="Ellipse 5" cx="2.428" cy="2.428" r="2.428" transform="translate(0 9.714)" fill="#ed90bc"/>
      <circle id="Ellipse_6" data-name="Ellipse 6" cx="6.071" cy="6.071" r="6.071" transform="translate(24.284 19.428)" fill="#002e82"/>
      <circle id="Ellipse_7" data-name="Ellipse 7" cx="1.214" cy="1.214" r="1.214" transform="translate(24.284 9.713)" fill="#e50021"/>
    </g>
  </g>
</svg>
